<svg width="42" height="43" viewBox="0 0 42 43" fill="none" xmlns="http://www.w3.org/2000/svg">
<g clip-path="url(#clip0_10_484)">
<path d="M35 7.1665H7C5.075 7.1665 3.5175 8.779 3.5175 10.7498L3.5 32.2498C3.5 34.2207 5.075 35.8332 7 35.8332H35C36.925 35.8332 38.5 34.2207 38.5 32.2498V10.7498C38.5 8.779 36.925 7.1665 35 7.1665ZM34.3 14.7811L21.9275 22.7003C21.3675 23.0586 20.6325 23.0586 20.0725 22.7003L7.7 14.7811C7.2625 14.4944 7 14.0107 7 13.4911C7 12.2907 8.2775 11.574 9.275 12.2011L21 19.7082L32.725 12.2011C33.7225 11.574 35 12.2907 35 13.4911C35 14.0107 34.7375 14.4944 34.3 14.7811Z" fill="#D4DBE7"/>
</g>
<defs>
<clipPath id="clip0_10_484">
<rect width="42" height="43" fill="white"/>
</clipPath>
</defs>
</svg>
