<svg width="42" height="42" viewBox="0 0 42 42" fill="none" xmlns="http://www.w3.org/2000/svg">
<path d="M21 3.5C20.7686 3.50003 20.5394 3.54596 20.3259 3.63514C20.1123 3.72432 19.9186 3.85497 19.7559 4.01953L2.10547 19.4209C1.99523 19.5022 1.90564 19.6083 1.8439 19.7306C1.78216 19.8529 1.74999 19.988 1.75 20.125C1.75 20.3571 1.84219 20.5796 2.00628 20.7437C2.17038 20.9078 2.39294 21 2.625 21H7V35C7 35.966 7.784 36.75 8.75 36.75H15.75C16.716 36.75 17.5 35.966 17.5 35V24.5H24.5V35C24.5 35.966 25.284 36.75 26.25 36.75H33.25C34.216 36.75 35 35.966 35 35V21H39.375C39.6071 21 39.8296 20.9078 39.9937 20.7437C40.1578 20.5796 40.25 20.3571 40.25 20.125C40.25 19.988 40.2178 19.8529 40.1561 19.7306C40.0944 19.6083 40.0048 19.5022 39.8945 19.4209L22.2544 4.02979C22.251 4.02635 22.2476 4.02294 22.2441 4.01953C22.0814 3.85497 21.8877 3.72432 21.6741 3.63514C21.4606 3.54596 21.2314 3.50003 21 3.5Z" fill="#D4DBE7"/>
</svg>
