<svg width="42" height="41" viewBox="0 0 42 41" fill="none" xmlns="http://www.w3.org/2000/svg">
<g clip-path="url(#clip0_10_472)">
<path d="M22.54 8.62709C28.105 9.31042 32.4625 13.5642 33.1625 18.9967C33.2675 19.8679 34.02 20.5 34.895 20.5C34.965 20.5 35.035 20.5 35.105 20.4829C36.0675 20.3633 36.75 19.5092 36.6275 18.5696C35.735 11.5825 30.1175 6.09876 22.96 5.22751C21.9975 5.12501 21.1225 5.79126 21.0175 6.73084C20.895 7.67042 21.5775 8.52459 22.54 8.62709ZM23.205 12.2317C22.2775 11.9925 21.315 12.5392 21.07 13.4617C20.825 14.3842 21.385 15.3067 22.33 15.5458C24.1675 16.0071 25.6025 17.4079 26.0925 19.2188C26.3025 19.9875 27.0025 20.5 27.79 20.5C27.93 20.5 28.0875 20.4829 28.2275 20.4488C29.155 20.2096 29.715 19.27 29.4875 18.3646C28.665 15.3408 26.2675 13.0004 23.205 12.2317ZM33.6525 26.0692L29.2075 25.5738C28.14 25.4542 27.09 25.8129 26.3375 26.5475L23.1175 29.6908C18.165 27.2308 14.105 23.2846 11.585 18.4329L14.8225 15.2725C15.575 14.5379 15.9425 13.5129 15.82 12.4708L15.3125 8.16584C15.1025 6.44042 13.615 5.14209 11.83 5.14209H8.8025C6.825 5.14209 5.18 6.74792 5.3025 8.67834C6.23 23.2675 18.1825 34.9183 33.11 35.8238C35.0875 35.9433 36.7325 34.3375 36.7325 32.4071V29.4517C36.75 27.7263 35.42 26.2742 33.6525 26.0692Z" fill="#D4DBE7"/>
</g>
<defs>
<clipPath id="clip0_10_472">
<rect width="42" height="41" fill="white"/>
</clipPath>
</defs>
</svg>
