<svg width="34" height="33" viewBox="0 0 34 33" fill="none" xmlns="http://www.w3.org/2000/svg">
<path d="M9.44444 0C4.22922 0 0 4.08474 0 9.1218V23.7167C0 28.7537 4.22922 32.8385 9.44444 32.8385H24.5556C29.7708 32.8385 34 28.7537 34 23.7167V9.1218C34 4.08474 29.7708 0 24.5556 0H9.44444ZM28.3333 3.64872C29.376 3.64872 30.2222 4.46603 30.2222 5.47308C30.2222 6.48013 29.376 7.29744 28.3333 7.29744C27.2907 7.29744 26.4444 6.48013 26.4444 5.47308C26.4444 4.46603 27.2907 3.64872 28.3333 3.64872ZM17 7.29744C22.2152 7.29744 26.4444 11.3822 26.4444 16.4192C26.4444 21.4563 22.2152 25.541 17 25.541C11.7848 25.541 7.55556 21.4563 7.55556 16.4192C7.55556 11.3822 11.7848 7.29744 17 7.29744ZM17 10.9462C15.4971 10.9462 14.0558 11.5228 12.9931 12.5492C11.9304 13.5756 11.3333 14.9677 11.3333 16.4192C11.3333 17.8708 11.9304 19.2629 12.9931 20.2893C14.0558 21.3157 15.4971 21.8923 17 21.8923C18.5029 21.8923 19.9442 21.3157 21.0069 20.2893C22.0696 19.2629 22.6667 17.8708 22.6667 16.4192C22.6667 14.9677 22.0696 13.5756 21.0069 12.5492C19.9442 11.5228 18.5029 10.9462 17 10.9462Z" fill="#D4DBE7"/>
</svg>
